<svg xmlns="http://www.w3.org/2000/svg" width="18.499" height="18.5" viewBox="0 0 18.499 18.5">
  <g id="Group_12143" data-name="Group 12143" transform="translate(0 0)">
    <path id="Path_330" data-name="Path 330" d="M0,13.081,13.081,0V13.081Z" transform="translate(9.25 18.499) rotate(-135)" fill="#00ae8e"/>
    <g id="Group_12141" data-name="Group 12141" transform="translate(0.002 9.25)">
      <path id="Path_337" data-name="Path 337" d="M489.03,1602.79l8.457-8.456h1.584l-9.247,9.25Z" transform="translate(-480.573 -1594.333)" fill="#00ae8e"/>
      <path id="Path_338" data-name="Path 338" d="M495.269,1604.23l6.774-6.774h1.682l-7.615,7.616Z" transform="translate(-488.495 -1597.456)" fill="#00ae8e"/>
      <path id="Path_339" data-name="Path 339" d="M501.7,1605.764l5.1-5.094h1.674l-5.932,5.932Z" transform="translate(-496.602 -1600.67)" fill="#00ae8e"/>
      <path id="Path_340" data-name="Path 340" d="M508.113,1607.2l3.318-3.318H513.3l-4.252,4.252Z" transform="translate(-504.794 -1603.877)" fill="#00ae8e"/>
      <path id="Path_341" data-name="Path 341" d="M514.893,1608.951l1.686-1.683h1.585l-2.477,2.477Z" transform="translate(-513.209 -1607.267)" fill="#00ae8e"/>
      <path id="Path_342" data-name="Path 342" d="M521.138,1610.391h1.683l-.841.841Z" transform="translate(-521.138 -1610.391)" fill="#00ae8e"/>
    </g>
  </g>
</svg>
